<svg xmlns="http://www.w3.org/2000/svg" version="1.1" xmlns:xlink="http://www.w3.org/1999/xlink" xmlns:svgjs="http://svgjs.dev/svgjs" width="1500" height="1603" viewBox="0 0 1500 1603"><g transform="matrix(1,0,0,1,-1.7633680054119623,-2.585483870967778)"><svg viewBox="0 0 232 248" data-background-color="#ffffff" preserveAspectRatio="xMidYMid meet" height="1603" width="1500" xmlns="http://www.w3.org/2000/svg" xmlns:xlink="http://www.w3.org/1999/xlink"><g id="tight-bounds" transform="matrix(1,0,0,1,0.27273425150372077,0.4000000000000057)"><svg viewBox="0 0 231.4545314969926 247.2" height="247.2" width="231.4545314969926"><g><svg viewBox="0 0 395.52 422.4265706427545" height="247.2" width="231.4545314969926"><g transform="matrix(1,0,0,1,0,288.2234904094914)"><svg viewBox="0 0 395.52 134.2030802332631" height="134.2030802332631" width="395.52"><g id="textblocktransform"><svg viewBox="0 0 395.52 134.2030802332631" height="134.2030802332631" width="395.52" id="textblock"><g><svg viewBox="0 0 395.52 76.70557958957292" height="76.70557958957292" width="395.52"><g transform="matrix(1,0,0,1,0,0)"><svg width="395.52" viewBox="0.24 -38.11 264.09 51.22" height="76.70557958957292" data-palette-color="#050505"><path d="M7.64-0.85L6.25 1.1 4.76 1.1 4.76-33.59 0.24-35.35 0.24-36.35 8.74-38.11 9.25-37.6 9.25-23.39Q11.79-25.61 15.89-25.61L15.89-25.61Q17.92-25.61 19.84-24.69 21.75-23.78 23.24-22.13 24.73-20.48 25.63-17.97 26.54-15.45 26.54-12.5L26.54-12.5Q26.54-9.38 25.5-6.84 24.46-4.3 22.71-2.7 20.95-1.1 18.71-0.24 16.48 0.61 13.99 0.61L13.99 0.61Q10.79 0.61 7.64-0.85L7.64-0.85ZM14.11-23.1L14.11-23.1Q11.23-23.1 9.25-20.8L9.25-20.8 9.25-4.2Q10.47-2.81 11.68-2.36 12.89-1.9 14.26-1.9L14.26-1.9Q16.53-1.9 18.2-3.44 19.87-4.98 20.67-7.34 21.46-9.69 21.46-12.5L21.46-12.5Q21.46-17.16 19.45-20.13 17.43-23.1 14.11-23.1ZM43.02-25.61L43.02-25.61Q45.8-25.61 48.02-24.66 50.24-23.71 51.78-21.98 53.32-20.26 54.14-17.85 54.95-15.43 54.95-12.5L54.95-12.5Q54.95-9.59 54.15-7.18 53.34-4.76 51.8-3.03 50.27-1.29 48.04-0.34 45.82 0.61 43.02 0.61L43.02 0.61Q40.18 0.61 37.96-0.34 35.74-1.29 34.2-3.03 32.66-4.76 31.86-7.17 31.05-9.57 31.05-12.5L31.05-12.5Q31.05-15.43 31.87-17.85 32.69-20.26 34.23-21.98 35.76-23.71 37.99-24.66 40.21-25.61 43.02-25.61ZM37.69-20.43L37.69-20.43Q35.81-17.38 35.81-12.5L35.81-12.5Q35.81-10.08 36.29-8.07 36.77-6.05 37.68-4.6 38.6-3.15 39.94-2.34 41.28-1.54 43.02-1.54L43.02-1.54Q44.75-1.54 46.12-2.34 47.48-3.15 48.42-4.6 49.36-6.05 49.86-8.07 50.36-10.08 50.36-12.5L50.36-12.5Q50.36-14.89 49.86-16.91 49.36-18.92 48.42-20.37 47.48-21.83 46.12-22.64 44.75-23.46 43.02-23.46L43.02-23.46Q39.55-23.46 37.69-20.43ZM71.41-25.61L71.41-25.61Q74.19-25.61 76.41-24.66 78.63-23.71 80.17-21.98 81.71-20.26 82.53-17.85 83.34-15.43 83.34-12.5L83.34-12.5Q83.34-9.59 82.54-7.18 81.73-4.76 80.2-3.03 78.66-1.29 76.44-0.34 74.21 0.61 71.41 0.61L71.41 0.61Q68.57 0.61 66.35-0.34 64.13-1.29 62.59-3.03 61.05-4.76 60.25-7.17 59.44-9.57 59.44-12.5L59.44-12.5Q59.44-15.43 60.26-17.85 61.08-20.26 62.62-21.98 64.16-23.71 66.38-24.66 68.6-25.61 71.41-25.61ZM66.08-20.43L66.08-20.43Q64.2-17.38 64.2-12.5L64.2-12.5Q64.2-10.08 64.68-8.07 65.16-6.05 66.07-4.6 66.99-3.15 68.33-2.34 69.67-1.54 71.41-1.54L71.41-1.54Q73.14-1.54 74.51-2.34 75.87-3.15 76.81-4.6 77.75-6.05 78.25-8.07 78.75-10.08 78.75-12.5L78.75-12.5Q78.75-14.89 78.25-16.91 77.75-18.92 76.81-20.37 75.87-21.83 74.51-22.64 73.14-23.46 71.41-23.46L71.41-23.46Q67.94-23.46 66.08-20.43ZM96.09-2.76L100.09-1 100.09 0 87.08 0 87.08-1 91.59-2.76 91.59-33.59 87.08-35.35 87.08-36.35 95.6-38.11 96.09-37.6 96.09-13.65 98.28-14.16 105.58-22.75 102.39-24 102.39-25 113.03-25 113.03-24 108.83-22.34 101.68-13.94 110.2-2.71 110.2-2.76 114.45-1 114.45 0 107 0 97.84-11.79 96.09-11.79 96.09-2.76ZM122.33-0.85L120.94 1.1 119.45 1.1 119.45-33.59 114.93-35.35 114.93-36.35 123.43-38.11 123.94-37.6 123.94-23.39Q126.48-25.61 130.58-25.61L130.58-25.61Q132.61-25.61 134.52-24.69 136.44-23.78 137.93-22.13 139.42-20.48 140.32-17.97 141.23-15.45 141.23-12.5L141.23-12.5Q141.23-9.38 140.19-6.84 139.15-4.3 137.39-2.7 135.63-1.1 133.4-0.24 131.17 0.61 128.68 0.61L128.68 0.61Q125.48 0.61 122.33-0.85L122.33-0.85ZM128.8-23.1L128.8-23.1Q125.92-23.1 123.94-20.8L123.94-20.8 123.94-4.2Q125.16-2.81 126.37-2.36 127.58-1.9 128.95-1.9L128.95-1.9Q131.22-1.9 132.89-3.44 134.56-4.98 135.35-7.34 136.15-9.69 136.15-12.5L136.15-12.5Q136.15-17.16 134.13-20.13 132.12-23.1 128.8-23.1ZM154.24-2.76L160-1 160 0 145.25 0 145.25-1 149.74-2.76 149.74-21.09 145.25-22.85 145.25-23.85 153.75-25.61 154.24-25.1 154.24-22.09Q157.95-25.61 164-25.61L164-25.61 164-20.19 163-19.85 159.44-21.8Q158.34-21.8 156.92-21.33 155.51-20.85 154.24-19.95L154.24-19.95 154.24-2.76ZM175.74-2.76L180.23-1 180.23 0 166.73 0 166.73-1 171.23-2.76 171.23-21.09 166.73-22.85 166.73-23.85 175.23-25.61 175.74-25.1 175.74-2.76ZM169.59-32.96L169.59-32.96Q169.59-34.23 170.48-35.12 171.37-36.01 172.69-36.01L172.69-36.01Q173.96-36.01 174.85-35.12 175.74-34.23 175.74-32.96L175.74-32.96Q175.74-31.64 174.85-30.75 173.96-29.86 172.69-29.86L172.69-29.86Q171.37-29.86 170.48-30.75 169.59-31.64 169.59-32.96ZM205.77-3.39L210.26-2.15 210.26-1.25 201.76 0.61 201.28 0.1 201.28-2.25Q198.35 0.61 194.37 0.61L194.37 0.61Q192.34 0.61 190.46-0.31 188.58-1.22 187.14-2.87 185.7-4.52 184.83-7.02 183.97-9.52 183.97-12.5L183.97-12.5Q183.97-15.41 184.96-17.87 185.94-20.34 187.63-22.01 189.31-23.68 191.61-24.62 193.9-25.56 196.47-25.56L196.47-25.56Q198.79-25.56 201.28-24.76L201.28-24.76 201.28-33.59 196.76-35.35 196.76-36.35 205.28-38.11 205.77-37.6 205.77-3.39ZM201.28-4.91L201.28-4.91 201.28-21.85Q199.01-23.1 196.98-23.1L196.98-23.1Q193.54-23.1 191.3-20.06 189.07-17.02 189.07-12.5L189.07-12.5Q189.07-7.76 190.91-4.88 192.76-2 196.08-2L196.08-2Q199.13-2 201.28-4.91ZM221.12 0.95L221.12 0.95Q218.73 2.42 218.73 5.59L218.73 5.59Q218.73 7.03 219.44 8 220.15 8.96 221.24 9.53 222.34 10.11 223.69 10.35 225.03 10.6 226.27 10.6L226.27 10.6Q227.57 10.6 228.87 10.34 230.18 10.08 231.22 9.58 232.26 9.08 232.91 8.34 233.57 7.59 233.57 6.59L233.57 6.59Q233.57 5.05 232.8 4.13 232.04 3.2 230.72 2.65 229.4 2.1 227.62 1.83 225.83 1.56 223.81 1.34L223.81 1.34Q222.95 1.25 222.28 1.15 221.61 1.05 221.12 0.95ZM226.03-6.81L226.03-6.81Q223.52-6.81 221.42-7.59L221.42-7.59Q219.88-6.57 219.88-5L219.88-5Q219.88-4.1 220.92-3.56 221.95-3.03 223.61-2.8 225.27-2.56 227.27-2.37 229.28-2.17 231.28-1.76 233.28-1.34 234.94-0.62 236.6 0.1 237.64 1.55 238.68 3 238.68 5.1L238.68 5.1Q238.68 6.79 237.87 8.18 237.06 9.57 235.76 10.46 234.45 11.35 232.69 11.96 230.94 12.57 229.12 12.84 227.3 13.11 225.42 13.11L225.42 13.11Q220.17 13.11 217.22 11.29 214.26 9.47 214.26 6.54L214.26 6.54Q214.26 2.32 218.93 0.39L218.93 0.39Q216.02-0.59 216.02-3.25L216.02-3.25Q216.02-6.37 219.83-8.45L219.83-8.45Q217.7-9.74 216.57-11.82 215.43-13.89 215.43-16.21L215.43-16.21Q215.43-17.99 216.14-19.67 216.85-21.34 218.16-22.67 219.46-24 221.51-24.8 223.56-25.61 226.03-25.61L226.03-25.61Q228.18-25.61 229.96-25L229.96-25 239.77-25 239.77-24 234.43-22.09Q236.63-19.53 236.63-16.21L236.63-16.21Q236.63-14.43 235.91-12.76 235.19-11.08 233.88-9.75 232.57-8.42 230.53-7.62 228.5-6.81 226.03-6.81ZM220.51-16.21L220.51-16.21Q220.51-12.87 221.98-11.08 223.44-9.3 226.03-9.3L226.03-9.3Q228.59-9.3 230.06-11.1 231.52-12.89 231.52-16.21L231.52-16.21Q231.52-19.53 230.06-21.31 228.59-23.1 226.03-23.1L226.03-23.1Q223.44-23.1 221.98-21.31 220.51-19.53 220.51-16.21ZM264.33-13.06L263.62-12.35 247.83-12.35Q247.85-9.62 248.61-7.59 249.37-5.57 250.66-4.42 251.96-3.27 253.51-2.73 255.06-2.2 256.89-2.2L256.89-2.2Q259.43-2.2 262.33-3.91L262.33-3.91 263.09-2.44Q261.04-0.63 258.99-0.01 256.94 0.61 254.32 0.61L254.32 0.61Q252.05 0.61 249.95-0.35 247.85-1.32 246.27-3.02 244.68-4.71 243.73-7.18 242.78-9.64 242.78-12.5L242.78-12.5Q242.78-15.21 243.47-17.44 244.17-19.68 245.31-21.17 246.46-22.66 247.99-23.68 249.51-24.71 251.11-25.16 252.71-25.61 254.37-25.61L254.37-25.61Q256.45-25.61 258.22-24.84 259.99-24.07 261.37-22.57 262.75-21.07 263.54-18.63 264.33-16.19 264.33-13.06L264.33-13.06ZM254.47-23.24L254.47-23.24Q251.66-23.24 249.99-21.02 248.32-18.8 247.93-14.94L247.93-14.94 259.57-14.94Q259.57-18.85 258.25-21.04 256.94-23.24 254.47-23.24Z" opacity="1" transform="matrix(1,0,0,1,0,0)" fill="#050505" class="wordmark-text-0" data-fill-palette-color="primary" id="text-0"></path></svg></g></svg></g><g transform="matrix(1,0,0,1,75.54432,94.81392599676093)"><svg viewBox="0 0 244.43135999999998 39.38915423650216" height="39.38915423650216" width="244.43135999999998"><g transform="matrix(1,0,0,1,0,0)"><svg width="244.43135999999998" viewBox="1 -29.6 301.86 48.650000000000006" height="39.38915423650216" data-palette-color="#00d1cd"><path d="M27.9-25.2L27.9-25.2Q27.9-28 24.95-28L24.95-28Q22.4-28 18.32-25.6 14.25-23.2 9.95-18.28 5.65-13.35 3.95-7.95L3.95-7.95Q3.25-5.8 3.25-3.98 3.25-2.15 4.3-0.8L4.3-0.8Q6.15 1.6 10.35 1.65L10.35 1.65Q10.65 1.65 10.9 1.65L10.9 1.65Q15.55 1.65 20.95-0.73 26.35-3.1 29.6-7.7L29.6-7.7Q29.85-8.05 30.13-7.85 30.4-7.65 30.4-7.5 30.4-7.35 30.3-7.25L30.3-7.25Q26.6-2.2 21.2 0.35 15.8 2.9 10.75 2.9L10.75 2.9Q5.45 2.9 2.75-0.1L2.75-0.1Q1-2.05 1-5.2L1-5.2Q1-10.5 5-16.6L5-16.6Q10.45-24.9 18.2-28.1L18.2-28.1Q21.2-29.3 23.95-29.3L23.95-29.3Q27.35-29.3 28.8-27.7L28.8-27.7Q29.75-26.6 29.75-25.15L29.75-25.15Q29.75-22.4 26.85-19.5 23.95-16.6 20.43-14.88 16.9-13.15 14.3-12.9L14.3-12.9Q13.25-12.8 13.3-13.45L13.3-13.45Q13.35-14.35 14.55-14.45L14.55-14.45Q18.55-14.8 21.9-16.88 25.25-18.95 27.05-22.4L27.05-22.4Q27.9-23.75 27.9-25.2ZM39.1-5.5L39.1-5.5Q40-7.35 40-8.35 40-9.35 39.77-9.93 39.55-10.5 39.97-10.9 40.4-11.3 41.05-11.2L41.05-11.2Q42.05-10.95 42.05-8.95 42.05-6.95 39.7-3.7L39.7-3.7Q39.75-2.35 41.1-2.35 42.45-2.35 45.2-5.25L45.2-5.25Q46.5-6.75 46.82-7.2 47.15-7.65 47.4-7.53 47.65-7.4 47.65-7.3L47.65-7.3Q47.65-6.8 45.85-4.7L45.85-4.7Q43-1.2 40.8-1.2L40.8-1.2Q39.35-1.2 38.75-2.45L38.75-2.45Q37.75-1.4 36.8-0.5L36.8-0.5Q34.85 1.15 32.45 1.15L32.45 1.15Q31.1 1.15 30.2 0.5L30.2 0.5Q28.45-0.55 28.45-3.25L28.45-3.25Q28.45-6.2 30.45-9.25L30.45-9.25Q31.6-11.05 33.15-12.4L33.15-12.4Q35.6-14.55 37.8-14.55L37.8-14.55Q38.35-14.55 38.85-14.4L38.85-14.4Q40.35-13.9 40.35-12.5L40.35-12.5Q40.35-11.35 39.75-11.35L39.75-11.35Q39.5-11.45 39.5-12.1L39.5-12.1Q39.5-13 38.5-13L38.5-13Q36.75-13 34-9.8 31.25-6.6 30.7-3.35L30.7-3.35Q30.6-2.8 30.6-2.13 30.6-1.45 31.05-0.58 31.5 0.3 32.72 0.3 33.95 0.3 35.4-0.8 36.85-1.9 38-3.6L38-3.6 37.85-3.9Q37.65-4.7 38.05-5.2 38.45-5.7 39.1-5.5ZM60.2-14.2L60.2-14.2Q61.34-14.2 61.34-12.98 61.34-11.75 60.2-9.6 59.05-7.45 58.5-6.1L58.5-6.1Q57.55-3.8 57.55-2.43 57.55-1.05 57.95-0.6L57.95-0.6Q58.7 0.2 60-0.53 61.3-1.25 63.62-3.33 65.95-5.4 67.34-7.4L67.34-7.4Q67.55-7.65 67.82-7.53 68.09-7.4 68.09-7.28 68.09-7.15 68-7L68-7Q67.25-5.65 65.3-3.55 63.34-1.45 61.55-0.18 59.75 1.1 58 1.1L58 1.1Q56.3 1.05 55.59 0.33 54.9-0.4 54.9-1.5 54.9-2.6 55.09-3.63 55.3-4.65 55.84-6L55.84-6Q56.75-8.15 57.42-9.35 58.09-10.55 58.09-10.93 58.09-11.3 57.7-11.3L57.7-11.3Q56.9-11.3 54.65-9.35L54.65-9.35Q53.09-7.9 50.07-3.88 47.05 0.15 46.65 0.4L46.65 0.4Q44.84 1.3 44.4 1.3 43.95 1.3 43.95 1.15 43.95 1 44.05 0.73 44.15 0.45 45.02-2 45.9-4.45 46.92-7.38 47.95-10.3 48.17-10.9 48.4-11.5 48.47-11.93 48.55-12.35 48.65-12.65 48.75-12.95 49.02-13.33 49.3-13.7 49.75-13.73 50.2-13.75 50.9-13.63 51.59-13.5 51.59-13L51.59-13Q51.59-12.65 51.05-11.48 50.5-10.3 47.9-3.4L47.9-3.4Q49.7-5.6 52.45-8.47 55.2-11.35 57.09-12.85L57.09-12.85Q59-14.2 60.2-14.2ZM80.64-14.2L80.64-14.2Q81.79-14.2 81.79-12.98 81.79-11.75 80.64-9.6 79.49-7.45 78.94-6.1L78.94-6.1Q77.99-3.8 77.99-2.43 77.99-1.05 78.39-0.6L78.39-0.6Q79.14 0.2 80.44-0.53 81.74-1.25 84.07-3.33 86.39-5.4 87.79-7.4L87.79-7.4Q87.99-7.65 88.27-7.53 88.54-7.4 88.54-7.28 88.54-7.15 88.44-7L88.44-7Q87.69-5.65 85.74-3.55 83.79-1.45 81.99-0.18 80.19 1.1 78.44 1.1L78.44 1.1Q76.74 1.05 76.04 0.33 75.34-0.4 75.34-1.5 75.34-2.6 75.54-3.63 75.74-4.65 76.29-6L76.29-6Q77.19-8.15 77.87-9.35 78.54-10.55 78.54-10.93 78.54-11.3 78.14-11.3L78.14-11.3Q77.34-11.3 75.09-9.35L75.09-9.35Q73.54-7.9 70.52-3.88 67.49 0.15 67.09 0.4L67.09 0.4Q65.29 1.3 64.84 1.3 64.39 1.3 64.39 1.15 64.39 1 64.49 0.73 64.59 0.45 65.47-2 66.34-4.45 67.37-7.38 68.39-10.3 68.62-10.9 68.84-11.5 68.92-11.93 68.99-12.35 69.09-12.65 69.19-12.95 69.47-13.33 69.74-13.7 70.19-13.73 70.64-13.75 71.34-13.63 72.04-13.5 72.04-13L72.04-13Q72.04-12.65 71.49-11.48 70.94-10.3 68.34-3.4L68.34-3.4Q70.14-5.6 72.89-8.47 75.64-11.35 77.54-12.85L77.54-12.85Q79.44-14.2 80.64-14.2ZM98.74-14.55L98.74-14.55Q101.44-14.55 101.44-11.95L101.44-11.95Q101.44-10.6 100.69-9.75L100.69-9.75Q99.44-7.9 96.64-6.53 93.84-5.15 91.89-5L91.89-5Q91.19-4.95 91.14-5.4L91.14-5.4Q91.09-5.6 91.27-5.65 91.44-5.7 91.54-5.7L91.54-5.7Q92.69-5.8 94.49-6.8L94.49-6.8Q97.84-8.6 99.39-10.5L99.39-10.5Q100.04-11.4 100.04-12.23 100.04-13.05 99.24-13.05L99.24-13.05Q98.59-13.05 97.49-12.5L97.49-12.5Q95.14-11.4 92.54-8.68 89.94-5.95 89.14-3.35L89.14-3.35Q88.89-2.55 88.89-1.78 88.89-1 89.54-0.3 90.19 0.4 91.54 0.4L91.54 0.4Q93.04 0.4 94.99-0.4L94.99-0.4Q100.64-2.7 103.69-7.35L103.69-7.35Q103.99-7.75 104.24-7.5L104.24-7.5Q104.44-7.4 104.44-7.25 104.44-7.1 104.29-6.9L104.29-6.9Q102.79-4.4 100.49-2.45L100.49-2.45Q96.04 1.35 91.84 1.35L91.84 1.35Q88.24 1.35 86.79-0.8L86.79-0.8Q86.24-1.65 86.24-2.85 86.24-4.05 86.89-5.7L86.89-5.7Q88.14-8.55 92.24-11.55 96.34-14.55 98.74-14.55ZM115.69-11L115.69-11 115.94-12Q115.94-13 115.19-13L115.19-13Q113.14-13 109.59-9.8 106.04-6.6 105.09-3.35L105.09-3.35Q104.84-2.5 104.84-1.83 104.84-1.15 105.14-0.7L105.14-0.7Q105.74 0.2 106.99 0.2 108.24 0.2 109.69-0.15L109.69-0.15Q112.89-1.05 115.01-2.73 117.14-4.4 119.49-7.4L119.49-7.4Q119.69-7.65 119.96-7.55 120.24-7.45 120.24-7.28 120.24-7.1 120.09-6.75L120.09-6.75Q117.69-3.5 115.06-1.48 112.44 0.55 108.99 1.15L108.99 1.15Q107.99 1.3 107.14 1.3L107.14 1.3Q104.69 1.3 103.41 0.1 102.14-1.1 102.14-2.55 102.14-4 102.84-5.7L102.84-5.7Q104.09-8.55 108.19-11.55 112.29-14.55 114.69-14.55L114.69-14.55Q115.29-14.55 115.84-14.4L115.84-14.4Q117.24-13.9 117.24-12.8L117.24-12.8Q117.24-12.05 116.69-11.1 116.14-10.15 115.86-10.43 115.59-10.7 115.69-11ZM126.24-13.95L126.89-14Q130.74-14.35 131.56-14.35 132.39-14.35 132.39-14.1L132.39-14.1Q132.39-13.8 131.21-13.48 130.04-13.15 125.49-12.65L125.49-12.65Q125.24-12.2 124.89-11.6L124.89-11.6Q124.14-10.4 124.09-10.15L124.09-10.15Q121.24-4.45 121.09-2.9L121.09-2.9Q121.04-2.45 121.04-1.75 121.04-1.05 121.44-0.6L121.44-0.6Q122.14 0.2 123.44-0.5 124.74-1.2 127.06-3.3 129.39-5.4 130.84-7.4L130.84-7.4Q131.04-7.65 131.34-7.5L131.34-7.5Q132.09-7.15 128.74-3.55L128.74-3.55Q125.54-0.1 123.39 0.7L123.39 0.7Q122.14 1.15 121.29 1.15L121.29 1.15Q119.29 1.15 118.64-0.75L118.64-0.75Q118.54-1.1 118.54-1.6L118.54-1.6Q118.54-3.35 120.14-6.9L120.14-6.9Q119.89-6.35 118.19-4.4L118.19-4.4Q117.74-3.9 117.49-4.4L117.49-4.4Q117.44-4.5 117.44-4.67 117.44-4.85 117.64-5.1L117.64-5.1Q120.09-8.15 121.49-10.25L121.49-10.25Q121.49-10.3 122.59-12.35L122.59-12.35Q122.09-12.25 121.56-12.25 121.04-12.25 120.79-12.58 120.54-12.9 120.74-13.35L120.74-13.35Q121.09-14.15 123.39-14.25L123.39-14.25Q123.44-14.35 123.59-14.35L123.59-14.35 126.09-19Q126.29-19.4 126.54-19.83 126.79-20.25 126.91-20.48 127.04-20.7 127.19-20.95 127.34-21.2 127.44-21.3 127.54-21.4 127.64-21.5L127.64-21.5Q127.84-21.8 128.81-21.8 129.79-21.8 130.14-21.25L130.14-21.25Q130.29-21.05 130.29-20.58 130.29-20.1 129.94-19.53 129.59-18.95 129.19-18.7 128.79-18.45 128.64-18.15L128.64-18.15 126.24-13.95ZM132.18-22.23Q132.23-22.5 132.58-22.75 132.93-23 133.88-23 134.83-23 134.83-22.15L134.83-22.15Q134.83-21.55 134.58-20.75 134.33-19.95 134.23-19.58 134.13-19.2 133.66-17.68 133.18-16.15 132.98-15.4L132.98-15.4Q132.78-14.55 132.41-14.55 132.03-14.55 132.03-15.15L132.03-15.15 132.23-20.15Q132.23-20.5 132.18-21.23 132.13-21.95 132.18-22.23ZM137.93 0.5L137.93 0.5Q137.28 1.25 137.66 1.7 138.03 2.15 138.51 2.15 138.98 2.15 139.48 2L139.48 2Q141.63 1.35 143.66-0.58 145.68-2.5 145.68-4.5L145.68-4.5Q145.68-5.6 143.23-6.9L143.23-6.9Q142.08-7.5 141.93-7.6L141.93-7.6Q140.58-8.5 140.23-9.4L140.23-9.4Q139.53-8.2 137.98-5.95L137.98-5.95Q137.63-5.55 137.33-5.78 137.03-6 137.28-6.4L137.28-6.4Q139.33-9.2 139.98-11.1L139.98-11.1Q140.33-13.85 143.98-16.05 147.63-18.25 150.63-18.25L150.63-18.25Q152.53-18.25 153.31-17.57 154.08-16.9 154.08-16.25 154.08-15.6 153.71-14.75 153.33-13.9 152.18-13.15L152.18-13.15Q151.88-12.95 151.68-13.25L151.68-13.25Q151.58-13.55 152.11-14.08 152.63-14.6 152.78-15.5 152.93-16.4 151.98-16.6L151.98-16.6Q151.83-16.6 151.68-16.6L151.68-16.6Q149.73-16.6 146.81-15.15 143.88-13.7 142.23-11.4L142.23-11.4Q141.58-10.55 141.58-9.68 141.58-8.8 142.78-8.1L142.78-8.1Q143.28-7.8 144.48-7.15 145.68-6.5 146.18-6.2 146.68-5.9 147.38-5.25 148.08-4.6 148.13-4.05L148.13-4.05Q148.38-2.55 146.73-0.75L146.73-0.75Q144.38 1.85 139.73 2.9L139.73 2.9Q138.68 3.15 137.61 3.15 136.53 3.15 136.13 2.35L136.13 2.35Q135.98 2.15 135.98 1.73 135.98 1.3 136.78 0.35L136.78 0.35Q137.53-0.4 139.18-1.1L139.18-1.1Q139.33-1.15 139.43-1.05 139.53-0.95 139.48-0.8 139.43-0.65 138.96-0.45 138.48-0.25 137.93 0.5ZM177.18-13.5L177.18-13.5Q178.08-13.5 179.33-12.58 180.58-11.65 180.73-10.75L180.73-10.75Q180.78-10.4 180.78-10.1L180.78-10.1Q180.78-7.85 178.58-5.28 176.38-2.7 173.63-0.9L173.63-0.9Q169.38 2 165.18 2L165.18 2Q163.48 2 162.48 1.55L162.48 1.55Q161.68 1.15 164.48 1.15L164.48 1.15Q167.53 1.15 172.38-2.45L172.38-2.45Q177.08-5.75 178.08-10.35L178.08-10.35Q178.23-11.05 178.05-11.78 177.88-12.5 177.18-12.5L177.18-12.5Q174.93-12.5 171.28-9.35L171.28-9.35Q169.73-8.05 168.1-5.85 166.48-3.65 166.48-2.25L166.48-2.25Q166.48-2.05 166.55-1.83 166.63-1.6 166.38-1.1L166.38-1.1Q165.73 0.2 164.53-1.25L164.53-1.25Q164.23-2 164.23-2.8L164.23-2.8Q164.23-5.1 164.93-7.65L164.93-7.65Q164.73-7.45 164.05-6.43 163.38-5.4 162.48-4.4L162.48-4.4Q162.03-3.9 161.78-4.4L161.78-4.4Q161.73-4.5 161.73-4.67 161.73-4.85 161.93-5.1L161.93-5.1Q165.83-9.95 166.48-11.4L166.48-11.4Q167.38-13.9 169.23-17.93 171.08-21.95 172.63-24.35L172.63-24.35Q175.83-29.4 179.23-29.4L179.23-29.4Q179.83-29.4 180.48-29.25L180.48-29.25 181.48-28.9Q182.93-28.05 182.93-26.73 182.93-25.4 182.13-23.85L182.13-23.85Q180.83-21.2 176.53-17.18 172.23-13.15 168.18-10.35L168.18-10.35Q167.18-8.55 166.63-5.65L166.63-5.65Q168.48-8.4 171.45-10.95 174.43-13.5 177.18-13.5ZM175.58-18L175.58-18Q181.53-24 181.53-26.9L181.53-26.9Q181.53-28.1 180.63-28.1L180.63-28.1Q179.93-28.1 178.73-27.2L178.73-27.2Q173.58-23.25 168.73-12.35L168.73-12.35Q172.13-14.6 175.58-18ZM181.32 19.05L181.32 19.05Q180.92 19.05 180.32 18.9L180.32 18.9Q177.77 18.25 177.77 16.23 177.77 14.2 180.4 11.15 183.02 8.1 191.47 2.5L191.47 2.5Q196.17-7.1 197.42-10.95L197.42-10.95Q196.82-10.25 195.07-7.93 193.32-5.6 191.97-3.98 190.62-2.35 188.72-0.9 186.82 0.55 185.22 0.55 183.62 0.55 182.75-0.18 181.87-0.9 181.77-1.7 181.67-2.5 181.67-3.05L181.67-3.05Q181.67-4.9 182.67-6.75L182.67-6.75Q184.17-9.8 186.72-12L186.72-12Q187.67-12.9 188.4-12.9 189.12-12.9 189.72-12.45L189.72-12.45Q190.37-11.75 190.12-11.25L190.12-11.25Q188.22-10.15 185.77-7L185.77-7Q184.47-5.3 183.97-2.7L183.97-2.7Q183.92-2.35 183.92-1.83 183.92-1.3 184.35-0.98 184.77-0.65 185.22-0.65L185.22-0.65Q186.77-0.65 188.47-2.3 190.17-3.95 191.72-5.78 193.27-7.6 195.25-10.15 197.22-12.7 197.85-13.5 198.47-14.3 199.12-14.3L199.12-14.3Q199.92-14.3 200.77-13.85 201.62-13.4 201.5-13.15 201.37-12.9 198.95-7.48 196.52-2.05 195.42 0.3L195.42 0.3Q196.62-0.35 199.5-2.78 202.37-5.2 204.37-7.7L204.37-7.7Q204.87-8.3 205.02-7.8L205.02-7.8Q205.07-7.7 205.07-7.48 205.07-7.25 204.77-6.85L204.77-6.85Q203.22-4.8 199.82-1.7 196.42 1.4 194.42 2.5L194.42 2.5Q190.17 11.25 188.72 13.5L188.72 13.5Q184.97 19.05 181.32 19.05ZM190.52 4.4L190.52 4.4Q184.52 8.9 181.95 11.5 179.37 14.1 179.37 15.98 179.37 17.85 180.67 17.85L180.67 17.85Q181.67 17.85 182.97 16.82 184.27 15.8 185.47 14.1 186.67 12.4 187.3 11.18 187.92 9.95 189.02 7.58 190.12 5.2 190.52 4.4ZM228.42-13.5L228.42-13.5Q229.32-13.5 230.57-12.58 231.82-11.65 231.97-10.75L231.97-10.75Q232.02-10.4 232.02-10.1L232.02-10.1Q232.02-7.85 229.82-5.28 227.62-2.7 224.87-0.9L224.87-0.9Q220.62 2 216.42 2L216.42 2Q214.72 2 213.72 1.55L213.72 1.55Q212.92 1.15 215.72 1.15L215.72 1.15Q218.77 1.15 223.62-2.45L223.62-2.45Q228.32-5.75 229.32-10.35L229.32-10.35Q229.47-11.05 229.29-11.78 229.12-12.5 228.42-12.5L228.42-12.5Q226.17-12.5 222.52-9.35L222.52-9.35Q220.97-8.05 219.34-5.85 217.72-3.65 217.72-2.25L217.72-2.25Q217.72-2.05 217.79-1.83 217.87-1.6 217.62-1.1L217.62-1.1Q216.97 0.2 215.77-1.25L215.77-1.25Q215.47-2 215.47-2.8L215.47-2.8Q215.47-5.1 216.17-7.65L216.17-7.65Q215.97-7.45 215.29-6.43 214.62-5.4 213.72-4.4L213.72-4.4Q213.27-3.9 213.02-4.4L213.02-4.4Q212.97-4.5 212.97-4.67 212.97-4.85 213.17-5.1L213.17-5.1Q217.07-9.95 217.72-11.4L217.72-11.4Q218.62-13.9 220.47-17.93 222.32-21.95 223.87-24.35L223.87-24.35Q227.07-29.4 230.47-29.4L230.47-29.4Q231.07-29.4 231.72-29.25L231.72-29.25 232.72-28.9Q234.17-28.05 234.17-26.73 234.17-25.4 233.37-23.85L233.37-23.85Q232.07-21.2 227.77-17.18 223.47-13.15 219.42-10.35L219.42-10.35Q218.42-8.55 217.87-5.65L217.87-5.65Q219.72-8.4 222.69-10.95 225.67-13.5 228.42-13.5ZM226.82-18L226.82-18Q232.77-24 232.77-26.9L232.77-26.9Q232.77-28.1 231.87-28.1L231.87-28.1Q231.17-28.1 229.97-27.2L229.97-27.2Q224.82-23.25 219.97-12.35L219.97-12.35Q223.37-14.6 226.82-18ZM244.27-5.5L244.27-5.5Q245.17-7.35 245.17-8.35 245.17-9.35 244.94-9.93 244.72-10.5 245.14-10.9 245.57-11.3 246.22-11.2L246.22-11.2Q247.22-10.95 247.22-8.95 247.22-6.95 244.87-3.7L244.87-3.7Q244.92-2.35 246.27-2.35 247.62-2.35 250.37-5.25L250.37-5.25Q251.67-6.75 251.99-7.2 252.32-7.65 252.57-7.53 252.82-7.4 252.82-7.3L252.82-7.3Q252.82-6.8 251.02-4.7L251.02-4.7Q248.17-1.2 245.97-1.2L245.97-1.2Q244.52-1.2 243.92-2.45L243.92-2.45Q242.92-1.4 241.97-0.5L241.97-0.5Q240.02 1.15 237.62 1.15L237.62 1.15Q236.27 1.15 235.37 0.5L235.37 0.5Q233.62-0.55 233.62-3.25L233.62-3.25Q233.62-6.2 235.62-9.25L235.62-9.25Q236.77-11.05 238.32-12.4L238.32-12.4Q240.77-14.55 242.97-14.55L242.97-14.55Q243.52-14.55 244.02-14.4L244.02-14.4Q245.52-13.9 245.52-12.5L245.52-12.5Q245.52-11.35 244.92-11.35L244.92-11.35Q244.67-11.45 244.67-12.1L244.67-12.1Q244.67-13 243.67-13L243.67-13Q241.92-13 239.17-9.8 236.42-6.6 235.87-3.35L235.87-3.35Q235.77-2.8 235.77-2.13 235.77-1.45 236.22-0.58 236.67 0.3 237.89 0.3 239.12 0.3 240.57-0.8 242.02-1.9 243.17-3.6L243.17-3.6 243.02-3.9Q242.82-4.7 243.22-5.2 243.62-5.7 244.27-5.5ZM261.81-5.5L261.81-5.5Q262.71-7.35 262.71-8.35 262.71-9.35 262.49-9.93 262.26-10.5 262.69-10.9 263.11-11.3 263.76-11.2L263.76-11.2Q264.76-10.95 264.76-8.95 264.76-6.95 262.41-3.7L262.41-3.7Q262.46-2.35 263.81-2.35 265.16-2.35 267.91-5.25L267.91-5.25Q269.21-6.75 269.54-7.2 269.86-7.65 270.11-7.53 270.36-7.4 270.36-7.3L270.36-7.3Q270.36-6.8 268.56-4.7L268.56-4.7Q265.71-1.2 263.51-1.2L263.51-1.2Q262.06-1.2 261.46-2.45L261.46-2.45Q260.46-1.4 259.51-0.5L259.51-0.5Q257.56 1.15 255.16 1.15L255.16 1.15Q253.81 1.15 252.91 0.5L252.91 0.5Q251.16-0.55 251.16-3.25L251.16-3.25Q251.16-6.2 253.16-9.25L253.16-9.25Q254.31-11.05 255.86-12.4L255.86-12.4Q258.31-14.55 260.51-14.55L260.51-14.55Q261.06-14.55 261.56-14.4L261.56-14.4Q263.06-13.9 263.06-12.5L263.06-12.5Q263.06-11.35 262.46-11.35L262.46-11.35Q262.21-11.45 262.21-12.1L262.21-12.1Q262.21-13 261.21-13L261.21-13Q259.46-13 256.71-9.8 253.96-6.6 253.41-3.35L253.41-3.35Q253.31-2.8 253.31-2.13 253.31-1.45 253.76-0.58 254.21 0.3 255.44 0.3 256.66 0.3 258.11-0.8 259.56-1.9 260.71-3.6L260.71-3.6 260.56-3.9Q260.36-4.7 260.76-5.2 261.16-5.7 261.81-5.5ZM271.31 0.4L271.31 0.4Q269.51 1.3 269.01 1.3 268.51 1.3 268.51 1.15 268.51 1 268.59 0.83 268.66 0.65 269.29-1.05 269.91-2.75 270.86-5.35 271.81-7.95 272.51-9.7L272.51-9.7Q271.36-8.45 269.81-6.25L269.81-6.25Q269.56-5.9 269.14-6.05 268.71-6.2 269.41-7.1L269.41-7.1Q271.06-9.1 273.56-12.85L273.56-12.85Q272.81-13.25 272.81-13.63 272.81-14 272.91-14.2L272.91-14.2Q273.16-14.8 273.81-14.45L273.81-14.45Q274.11-14.35 274.21-14.35L274.21-14.35Q276.41-20.15 279.71-24.7L279.71-24.7Q281.51-27.25 283.46-28.43 285.41-29.6 287.11-29.6L287.11-29.6Q288.31-29.6 289.41-29.03 290.51-28.45 290.51-27.15L290.51-27.15Q290.51-24.65 286.21-19.9L286.21-19.9Q283.91-17.45 281.06-15.4 278.21-13.35 276.01-12.4L276.01-12.4Q274.06-8.1 272.56-3.4L272.56-3.4 275.81-7.65Q275.76-8.1 275.76-8.6L275.76-8.6Q275.76-10.1 276.41-10.45L276.41-10.45Q276.76-10.6 276.86-9.85L276.86-9.85 277.06-9.15Q280.91-13.65 282.61-14.45L282.61-14.45Q283.41-14.85 284.06-14.85 284.71-14.85 285.21-14.5 285.71-14.15 285.71-13.75L285.71-13.75Q285.71-13.05 284.56-12.5L284.56-12.5Q279.06-9.85 277.31-8L277.31-8Q278.51-3.8 279.66-1.4 280.81 1 283.29 4 285.76 7 287.81 7L287.81 7Q289.51 7 289.21 5.5L289.21 5.5Q289.01 4.15 288.39 3.18 287.76 2.2 288.26 2.2L288.26 2.2Q288.71 2.25 289.21 2.65L289.21 2.65Q289.51 3 289.91 3.88 290.31 4.75 290.31 5.35L290.31 5.35Q290.26 6.75 288.96 7.55 287.66 8.35 286.46 8.35L286.46 8.35Q284.11 8.35 281.86 6.03 279.61 3.7 278.11 0.4 276.61-2.9 276.01-6.35L276.01-6.35Q275.11-5.1 274.01-3.35L274.01-3.35Q271.76 0.1 271.31 0.4ZM287.66-24.3Q289.01-26.55 289.01-27.45 289.01-28.35 288.26-28.35 287.51-28.35 286.36-27.45L286.36-27.45Q283.16-25 280.96-21.88 278.76-18.75 276.61-14.1L276.61-14.1Q281.26-16.25 285.06-20.6L285.06-20.6Q286.31-22.05 287.66-24.3ZM286.71 0.5L286.71 0.5Q286.06 1.25 286.43 1.7 286.81 2.15 287.28 2.15 287.76 2.15 288.26 2L288.26 2Q290.41 1.35 292.43-0.58 294.46-2.5 294.46-4.5L294.46-4.5Q294.46-5.6 292.01-6.9L292.01-6.9Q290.86-7.5 290.71-7.6L290.71-7.6Q289.36-8.5 289.01-9.4L289.01-9.4Q288.31-8.2 286.76-5.95L286.76-5.95Q286.41-5.55 286.11-5.78 285.81-6 286.06-6.4L286.06-6.4Q288.11-9.2 288.76-11.1L288.76-11.1Q289.11-13.85 292.76-16.05 296.41-18.25 299.41-18.25L299.41-18.25Q301.31-18.25 302.08-17.57 302.86-16.9 302.86-16.25 302.86-15.6 302.48-14.75 302.11-13.9 300.96-13.15L300.96-13.15Q300.66-12.95 300.46-13.25L300.46-13.25Q300.36-13.55 300.88-14.08 301.41-14.6 301.56-15.5 301.71-16.4 300.76-16.6L300.76-16.6Q300.61-16.6 300.46-16.6L300.46-16.6Q298.51-16.6 295.58-15.15 292.66-13.7 291.01-11.4L291.01-11.4Q290.36-10.55 290.36-9.68 290.36-8.8 291.56-8.1L291.56-8.1Q292.06-7.8 293.26-7.15 294.46-6.5 294.96-6.2 295.46-5.9 296.16-5.25 296.86-4.6 296.91-4.05L296.91-4.05Q297.16-2.55 295.51-0.75L295.51-0.75Q293.16 1.85 288.51 2.9L288.51 2.9Q287.46 3.15 286.38 3.15 285.31 3.15 284.91 2.35L284.91 2.35Q284.76 2.15 284.76 1.73 284.76 1.3 285.56 0.35L285.56 0.35Q286.31-0.4 287.96-1.1L287.96-1.1Q288.11-1.15 288.21-1.05 288.31-0.95 288.26-0.8 288.21-0.65 287.73-0.45 287.26-0.25 286.71 0.5Z" opacity="1" transform="matrix(1,0,0,1,0,0)" fill="#00d1cd" class="slogan-text-1" data-fill-palette-color="secondary" id="text-1"></path></svg></g></svg></g></svg></g></svg></g><g transform="matrix(1,0,0,1,71.75660120244231,0)"><svg viewBox="0 0 252.00679759511536 252.00679759511536" height="252.00679759511536" width="252.00679759511536"><g><svg></svg></g><g id="icon-0"><svg viewBox="0 0 252.00679759511536 252.00679759511536" height="252.00679759511536" width="252.00679759511536"><g><path d="M0 126.003c0-69.59 56.414-126.003 126.003-126.003 69.59 0 126.003 56.414 126.004 126.003 0 69.59-56.414 126.003-126.004 126.004-69.59 0-126.003-56.414-126.003-126.004zM126.003 245.089c65.769 0 119.086-53.317 119.086-119.086 0-65.769-53.317-119.086-119.086-119.086-65.769 0-119.086 53.317-119.086 119.086 0 65.769 53.317 119.086 119.086 119.086z" data-fill-palette-color="accent" fill="#00d1cd" stroke="transparent"></path></g><g transform="matrix(1,0,0,1,59.87565130533274,51.303022220245865)"><svg viewBox="0 0 132.25549498444988 149.40075315462363" height="149.40075315462363" width="132.25549498444988"><g><svg xmlns="http://www.w3.org/2000/svg" xmlns:xlink="http://www.w3.org/1999/xlink" version="1.1" x="0" y="0" viewBox="6.891 1.122 85.824 96.95" enable-background="new 0 0 100 100" xml:space="preserve" height="149.40075315462363" width="132.25549498444988" class="icon-dxe-0" data-fill-palette-color="accent" id="dxe-0"><g fill="#00d1cd" data-fill-palette-color="accent"><path fill="#00d1cd" d="M64.008 72.381C68.01 69.232 76.238 60.799 79.097 51.202 72.586 43.192 45.185 9.015 38.859 1.122 38.212 8.613 31.63 24.377 20.21 29.646 14.963 32.206 9.733 33.802 7.743 34.367L46.82 81.687C51.235 80.263 59.958 75.56 64.008 72.381" data-fill-palette-color="accent"></path><g fill="#00d1cd" data-fill-palette-color="accent"><g fill="#00d1cd" data-fill-palette-color="accent"><path fill="#00d1cd" d="M90.405 75.352C83.905 79.133 77.024 82.633 69.731 85.281 61.099 88.415 50.681 91.962 47.345 92.945V98.072L90.391 82.593z" data-fill-palette-color="accent"></path><polygon fill="#00d1cd" points="6.891,35.865 6.891,50.088 45.703,97.945 45.736,82.902    " data-fill-palette-color="accent"></polygon></g><path fill="#00d1cd" d="M88.717 70.42C83.699 74.356 77.331 78.341 70.439 81.783 63.918 85.049 49.56 89.451 47.346 90.122V91.266C51.032 90.176 60.382 87.368 68.583 84.253 77.687 80.796 90.703 72.625 90.703 72.625z" data-fill-palette-color="accent"></path></g><path fill="#00d1cd" d="M80.877 50.835L80.763 51.238C77.912 61.38 69.513 70.096 65.001 73.647 60.776 76.966 51.992 81.701 47.346 83.208V85.376C53.876 83.342 63.002 79.016 68.067 75.454 76.766 69.326 85.262 60.824 90.486 53.05L90.533 53.086C84.648 46.442 51.938 9.001 49.818 6.309 49.099 7.666 48.45 8.574 47.396 9.196 58.228 22.704 75.994 44.843 80.613 50.51z" data-fill-palette-color="accent"></path><path fill="#00d1cd" d="M87.321 59.925S75.733 72.025 68.993 76.771C63.297 80.779 54.493 84.713 47.346 86.939V88.437C48.038 88.225 49.184 87.871 50.614 87.416 55.88 85.739 65.024 82.694 69.72 80.344 79.025 75.696 87.343 70.07 92.554 64.958L92.715 64.798z" data-fill-palette-color="accent"></path></g></svg></g></svg></g></svg></g></svg></g><g></g></svg></g><defs></defs></svg><rect width="231.4545314969926" height="247.2" fill="none" stroke="none" visibility="hidden"></rect></g></svg></g></svg>